<?xml version="1.0"?>
<svg xmlns="http://www.w3.org/2000/svg" viewBox="0 0 32 32">
    <path d="M 5 5 C 3.3555411 5 2 6.3544268 2 8 L 2 24 L 2 25 L 3 25 L 5.15625 25 C 5.6033156 26.719842 7.1468019 28 9 28 C 10.853198 28 12.396684 26.719842 12.84375 25 L 20.15625 25 C 20.603316 26.719842 22.146802 28 24 28 C 25.853198 28 27.396684 26.719842 27.84375 25 L 30 25 L 31 25 L 31 24 L 31 14.5625 C 31 14.000833 30.829876 13.445951 30.53125 12.96875 L 26.4375 6.40625 C 25.890347 5.529306 24.939245 5 23.90625 5 L 5 5 z M 5 7 L 10 7 L 10 13 L 4 13 L 4 8 C 4 7.4355732 4.4364589 7 5 7 z M 12 7 L 18 7 L 18 13 L 12 13 L 12 7 z M 20 7 L 23.90625 7 C 24.253255 7 24.567153 7.175694 24.75 7.46875 L 28.1875 13 L 20 13 L 20 7 z M 4 15 L 10 15 L 12 15 L 18 15 L 20 15 L 29 15 L 29 17 L 26 17 L 26 19 L 29 19 L 29 23 L 27.84375 23 C 27.396684 21.280158 25.853198 20 24 20 C 22.146802 20 20.603316 21.280158 20.15625 23 L 12.84375 23 C 12.396684 21.280158 10.853198 20 9 20 C 7.1468019 20 5.6033156 21.280158 5.15625 23 L 4 23 L 4 15 z M 9 22 C 10.116414 22 11 22.883586 11 24 C 11 25.116414 10.116414 26 9 26 C 7.883586 26 7 25.116414 7 24 C 7 22.883586 7.883586 22 9 22 z M 24 22 C 25.116414 22 26 22.883586 26 24 C 26 25.116414 25.116414 26 24 26 C 22.883586 26 22 25.116414 22 24 C 22 22.883586 22.883586 22 24 22 z"/>
</svg>
